inDegrees=no
num_controls=7
num_derivatives=13
num_iterations=164
num_multipliers=7
num_parameters=0
num_slacks=7
num_states=26
objective=6.097635
objective_accelerations=0.551106
objective_balance=0.019086
objective_effort=0.492864
objective_height=5.011433
objective_ligament=0.023146
solver_duration=1410.442592
status=Solve_Succeeded
success=true
DataType=double
version=3
OpenSimVersion=4.4-2022-07-23-0e9fedc
endheader
time	/jointset/ground_pelvis/pelvis_tilt/value	/jointset/ground_pelvis/pelvis_tx/value	/jointset/ground_pelvis/pelvis_ty/value	/jointset/hip_r/hip_flexion_r/value	/jointset/hip_r/hip_adduction_r/value	/jointset/hip_r/hip_rotation_r/value	/jointset/back/lumbar_extension/value	/jointset/patellofemoral_r/patellar_flexion_r/value	/jointset/knee_r/knee_flexion_r/value	/jointset/knee_r/knee_adduction_r/value	/jointset/knee_r/knee_rotation_r/value	/jointset/ankle_r/ankle_angle_r/value	/jointset/subtalar_r/subtalar_angle_r/value	/jointset/ground_pelvis/pelvis_tilt/speed	/jointset/ground_pelvis/pelvis_tx/speed	/jointset/ground_pelvis/pelvis_ty/speed	/jointset/hip_r/hip_flexion_r/speed	/jointset/hip_r/hip_adduction_r/speed	/jointset/hip_r/hip_rotation_r/speed	/jointset/back/lumbar_extension/speed	/jointset/patellofemoral_r/patellar_flexion_r/speed	/jointset/knee_r/knee_flexion_r/speed	/jointset/knee_r/knee_adduction_r/speed	/jointset/knee_r/knee_rotation_r/speed	/jointset/ankle_r/ankle_angle_r/speed	/jointset/subtalar_r/subtalar_angle_r/speed	/forceset/tau_hip_flexion_r	/forceset/tau_hip_adduction_r	/forceset/tau_hip_rotation_r	/forceset/tau_knee_flexion_r	/forceset/tau_ankle_angle_r	/forceset/tau_subtalar_angle_r	/forceset/tau_lumbar_extension	lambda_cid13_p0	lambda_cid14_p0	lambda_cid14_p1	lambda_cid14_p2	lambda_cid14_p3	lambda_cid14_p4	lambda_cid14_p5	/jointset/ground_pelvis/pelvis_tilt/accel	/jointset/ground_pelvis/pelvis_tx/accel	/jointset/ground_pelvis/pelvis_ty/accel	/jointset/hip_r/hip_flexion_r/accel	/jointset/hip_r/hip_adduction_r/accel	/jointset/hip_r/hip_rotation_r/accel	/jointset/back/lumbar_extension/accel	/jointset/patellofemoral_r/patellar_flexion_r/accel	/jointset/knee_r/knee_flexion_r/accel	/jointset/knee_r/knee_adduction_r/accel	/jointset/knee_r/knee_rotation_r/accel	/jointset/ankle_r/ankle_angle_r/accel	/jointset/subtalar_r/subtalar_angle_r/accel	gamma_cid13_p0	gamma_cid14_p0	gamma_cid14_p1	gamma_cid14_p2	gamma_cid14_p3	gamma_cid14_p4	gamma_cid14_p5
0.5	-0.1416560975576721	0.02666240170827285	0.8393004053822857	0.8284217312618068	-0.2278210349148598	-0.1229343192890006	-0.3272669581239023	0.776077090078178	0.7760770900781877	0.0200844348974281	0.1745279399825377	0.2645881022944653	0.05983716152977409	-0.3700827287574338	-0.1371789452842933	-0.4295615326643529	1.770663575787642	0.002683433711762584	0.2485444033426476	-0.5982343090917277	1.913851734338269	1.913851734338218	-0.3540802464516347	2.772727816326715e-05	0.6143461950860136	0.1816716586721412	-0.103157371077611	-0.02645710322245003	0.01208814577173667	-0.3596860383961566	0.08982323369024721	-0.006510494807209007	0.1540486198586185	-26.80034373680397	-12.77352608247991	-1.525396250325824	-3.338846765926027	-0.3935365861065	-662.7854214055095	64.3520678314688	0.2406709320598667	0.4365655511570925	-0.4625360403755951	-1.102067307819316	-0.1110195950022368	-0.5880028319319152	1.500034286728016	-1.230678723716949	-1.230678723716929	0.4564091955536478	-0.07825102440183498	-0.5251518438480086	-0.1321110992200903	-2.329069629040808e-08	3.387927497456214e-07	2.739342028183342e-06	2.78933105549895e-06	-5.454300371868889e-07	3.021445032560393e-07	7.404357231968299e-07
0.51	-0.1453444144096263	0.02531258449679941	0.8349825985496652	0.8460710187934658	-0.2277993232980432	-0.120483917698764	-0.3331734980269189	0.7951513998795006	0.7951513998793782	0.01656226433047565	0.1745280736806307	0.270704572160312	0.06164769511965415	-0.3675263299920823	-0.1327696101671074	-0.4339034087312155	1.75895486790721	0.001652753346760948	0.2415328224118524	-0.5830018322664775	1.900747731674153	1.900747731674156	-0.3503361758079277	-3.942885270188777e-06	0.608863866671173	0.1803977480428917	-0.1092156986538335	-0.02488593463191076	0.01262987600719074	-0.3634021107701249	0.08648362501013733	-0.005748122666844783	0.1595358214948553	-25.6148297699613	-14.0359077413415	-1.531972829925412	-3.204567842360925	0.08465984751353875	-666.9358728119978	64.46792005426992	0.2712936503797912	0.4452411706012284	-0.4054893534933927	-1.241097366716427	-0.09935161390589343	-0.7580668531133482	1.545630267310074	-1.389630925551312	-1.389630925543212	0.3365534813272614	0.03449166943722266	-0.5724487661298848	-0.1298691280093064	-2.134056619446307e-08	3.359589497764864e-07	2.727725623159058e-06	2.734774745840967e-06	-5.43813415380615e-07	2.925774499979554e-07	8.308442720911353e-07
0.52	-0.1490055334136113	0.02400728537221835	0.8306242777636457	0.8635960542786016	-0.2277879703562031	-0.1181036981437327	-0.3389255579843074	0.8140867956766237	0.8140867956763745	0.01307816396647504	0.1745279140134282	0.2767636836568446	0.06344452198659535	-0.3646431591624446	-0.1282753279058181	-0.4376643233441076	1.745813166484345	0.0006116987154929602	0.2345079963026584	-0.5673383199657723	1.886068933498345	1.886068933498402	-0.3464662058622973	-3.094577864810534e-05	0.6028745212232179	0.178930314084362	-0.115274026230078	-0.02331476604139509	0.01317160624259966	-0.3671181831440963	0.08314401633002128	-0.004985750526511835	0.1650230231310733	-24.41868359264172	-15.30587796903661	-1.542308649278677	-3.066910244447724	0.5807446491515602	-671.202211822552	64.55039211970735	0.3060253449171595	0.453554979977719	-0.3463437495815131	-1.388666016305715	-0.113094448255504	-0.5906518676116328	1.58624138181902	-1.545637826055361	-1.545637826055355	0.4815890559383376	-0.07731757039077723	-0.6265552504709799	-0.1708157650761166	-2.152360289370038e-08	3.278929619496924e-07	2.715534247207645e-06	2.64010081746565e-06	-5.37903529964151e-07	2.748827071148925e-07	9.308688298205547e-07
0.53	-0.1526362549145648	0.02274730724731315	0.8262312885615314	0.8809826246131399	-0.2277872089831529	-0.1157935716125769	-0.3445189742161752	0.8328676191633347	0.8328676191631135	0.009633625811770881	0.174527420830504	0.2827603786750422	0.06522551626571547	-0.3614525147182567	-0.1237099783613271	-0.4408327506840242	1.731271678533163	-0.0004652323538258946	0.2275166471195734	-0.5512888613975951	1.869841554014846	1.869841554014861	-0.3424211882952887	-6.662602253019862e-05	0.5963845209452316	0.1772300759036119	-0.121099497496713	-0.02197150561034242	0.0135379142873449	-0.3710142469695281	0.08004048546638455	-0.004055712801451324	0.1703112213609597	-23.21452521597726	-16.49350740683043	-1.449916030957961	-2.963331305380764	1.026590441155825	-675.4985113838178	64.8471948581096	0.332900067164526	0.459465788774319	-0.2869241493145852	-1.521240187688485	-0.1052515707581799	-0.7533688446331711	1.62270784594144	-1.699415159962311	-1.699415159968608	0.3694563737004909	0.03400245451151487	-0.6723020159915556	-0.174665730474882	-2.109039831540188e-08	3.194714906123732e-07	2.695298048780498e-06	2.546127954940836e-06	-5.300677621054664e-07	2.560775981775069e-07	1.022217376065452e-06
0.54	-0.1562336067564812	0.0215332707872709	0.8218096487013944	0.8982169100675296	-0.22779726874769	-0.1135533570534504	-0.3499502139120372	0.8514785434251242	0.8514785434249229	0.006230237486070284	0.174526709986351	0.288689757770554	0.06698850058584804	-0.3579692273542693	-0.1190869949332288	-0.4433944549486526	1.715356190455431	-0.001552528802669706	0.2205256018974421	-0.5349030127644507	1.85208908851274	1.852089088512713	-0.3382362400635462	-7.447803046983531e-05	0.5894113366860793	0.1753283222868421	-0.1269249687633586	-0.0206282451792978	0.01390422233190841	-0.3749103107949646	0.07693695460274627	-0.003125675076397543	0.1755994195908367	-22.00541161320836	-17.68901788691896	-1.359256737709518	-2.859069311229737	1.488237070806746	-679.9198210619047	65.12142828056875	0.3645539288771385	0.4650817566991416	-0.2249991345238904	-1.663466041615444	-0.1151675241605673	-0.5905910754210157	1.653519394812441	-1.850655029776865	-1.850655029776817	0.5095751888851382	-0.0717519232021411	-0.723192046704271	-0.2111188522801506	-1.997539487685096e-08	3.10656718369792e-07	2.666161195699347e-06	2.452930739739985e-06	-5.201012306936867e-07	2.360439991374664e-07	1.103966930880664e-06
